<svg xmlns="http://www.w3.org/2000/svg" viewBox="0 0 96 96" role="img" aria-label="Vodafone Cash">
  <rect width="96" height="96" rx="20" fill="#e60000"/>
  <circle cx="48" cy="39" r="25" fill="#fff"/>
  <path d="M53 17c-12 9-14 20-7 28 5 6 7 10 5 16-2 6-8 10-15 11 14 5 29-4 33-17 5-15-4-30-15-38Z" fill="#e60000"/>
  <path d="M36 60c5 5 13 8 21 4 8-4 11-12 9-20-2 6-7 11-14 12-7 2-12-1-16 4Z" fill="#e60000" opacity=".86"/>
  <rect x="15" y="70" width="66" height="14" rx="7" fill="#fff"/>
  <text x="48" y="80.3" text-anchor="middle" font-family="Arial, sans-serif" font-size="9" font-weight="700" fill="#e60000">CASH</text>
</svg>
